<svg width="20" height="31" viewBox="0 0 20 31" fill="currentColor" xmlns="http://www.w3.org/2000/svg">
<path d="M19.9927 10.5145C19.9962 8.8968 19.6069 7.30238 18.8583 5.86829C18.1096 4.43419 17.024 3.20331 15.6946 2.28139C14.3652 1.35947 12.8319 0.774094 11.2264 0.575547C9.62089 0.376999 7.99117 0.571222 6.47728 1.14153C4.96338 1.71183 3.61059 2.64117 2.53513 3.84968C1.45967 5.05819 0.693697 6.50974 0.303034 8.07961C-0.0876295 9.64949 -0.0913057 11.2907 0.292322 12.8623C0.675949 14.4339 1.43541 15.8889 2.50545 17.1022V27.3772C2.50544 27.9655 2.67159 28.5418 2.98476 29.0397C3.29794 29.5377 3.7454 29.9371 4.27561 30.1919C4.80582 30.4467 5.39722 30.5465 5.98169 30.4799C6.56616 30.4133 7.11994 30.183 7.57924 29.8155L9.61026 28.1916C9.72093 28.1033 9.85835 28.0551 9.99998 28.0551C10.1416 28.0551 10.279 28.1033 10.3897 28.1916L12.4207 29.8155C12.88 30.183 13.4338 30.4133 14.0183 30.4799C14.6027 30.5465 15.1941 30.4467 15.7243 30.1919C16.2546 29.9371 16.702 29.5377 17.0152 29.0397C17.3284 28.5418 17.4945 27.9655 17.4945 27.3772V17.1022C19.1037 15.2851 19.9923 12.9418 19.9927 10.5145ZM9.99998 3.02001C11.4823 3.02001 12.9312 3.45956 14.1637 4.28307C15.3962 5.10658 16.3568 6.27706 16.924 7.64651C17.4913 9.01596 17.6397 10.5229 17.3505 11.9767C17.0613 13.4304 16.3475 14.7658 15.2994 15.814C14.2513 16.8621 12.9159 17.5759 11.4621 17.8651C10.0083 18.1542 8.50139 18.0058 7.13194 17.4386C5.7625 16.8713 4.59201 15.9107 3.7685 14.6783C2.94499 13.4458 2.50545 11.9968 2.50545 10.5145C2.50743 8.52748 3.29767 6.62237 4.70273 5.2173C6.1078 3.81224 8.01291 3.022 9.99998 3.02001ZM14.6428 27.9368C14.5372 27.9892 14.4186 28.01 14.3014 27.9967C14.1842 27.9834 14.0733 27.9366 13.9821 27.8619L11.9511 26.2381C11.3983 25.7928 10.7098 25.55 9.99998 25.55C9.29015 25.55 8.60169 25.7928 8.0489 26.2381L6.01913 27.8619C5.92748 27.9355 5.81693 27.9817 5.70018 27.9952C5.58344 28.0088 5.46524 27.9891 5.35917 27.9385C5.2531 27.8879 5.16346 27.8083 5.10057 27.7091C5.03767 27.6098 5.00407 27.4948 5.00362 27.3772V19.1557C6.51998 20.0408 8.24422 20.5072 9.99998 20.5072C11.7557 20.5072 13.48 20.0408 14.9963 19.1557V27.3772C14.9977 27.4947 14.9651 27.61 14.9024 27.7093C14.8396 27.8086 14.7495 27.8876 14.6428 27.9368Z" fill="white"/>
</svg>
